<mxfile host="app.diagrams.net" agent="Mozilla/5.0 (Windows NT 10.0; Win64; x64) AppleWebKit/537.36 (KHTML, like Gecko) Chrome/131.0.0.0 Safari/537.36" version="25.0.3" pages="3">
  <diagram name="Page-1" id="Vpvl3lZpIHQUYePZsDZ4">
    <mxGraphModel dx="1436" dy="912" grid="0" gridSize="10" guides="1" tooltips="1" connect="1" arrows="1" fold="1" page="1" pageScale="1" pageWidth="827" pageHeight="1169" math="0" shadow="0">
      <root>
        <mxCell id="0" />
        <mxCell id="1" parent="0" />
        <mxCell id="5Ev2oqW29s_Qb-x6B6ik-1" value="" style="edgeStyle=orthogonalEdgeStyle;rounded=0;orthogonalLoop=1;jettySize=auto;html=1;" edge="1" parent="1" source="5Ev2oqW29s_Qb-x6B6ik-2" target="5Ev2oqW29s_Qb-x6B6ik-4">
          <mxGeometry relative="1" as="geometry" />
        </mxCell>
        <mxCell id="5Ev2oqW29s_Qb-x6B6ik-2" value="会议室预约系统" style="rounded=0;whiteSpace=wrap;html=1;" vertex="1" parent="1">
          <mxGeometry x="354" y="70" width="120" height="50" as="geometry" />
        </mxCell>
        <mxCell id="5Ev2oqW29s_Qb-x6B6ik-3" value="" style="edgeStyle=orthogonalEdgeStyle;rounded=0;orthogonalLoop=1;jettySize=auto;html=1;" edge="1" parent="1" source="5Ev2oqW29s_Qb-x6B6ik-4" target="5Ev2oqW29s_Qb-x6B6ik-8">
          <mxGeometry relative="1" as="geometry" />
        </mxCell>
        <mxCell id="5Ev2oqW29s_Qb-x6B6ik-4" value="登录、注册" style="whiteSpace=wrap;html=1;rounded=0;" vertex="1" parent="1">
          <mxGeometry x="354" y="160" width="120" height="40" as="geometry" />
        </mxCell>
        <mxCell id="5Ev2oqW29s_Qb-x6B6ik-5" value="" style="edgeStyle=orthogonalEdgeStyle;rounded=0;orthogonalLoop=1;jettySize=auto;html=1;" edge="1" parent="1" source="5Ev2oqW29s_Qb-x6B6ik-8" target="5Ev2oqW29s_Qb-x6B6ik-10">
          <mxGeometry relative="1" as="geometry" />
        </mxCell>
        <mxCell id="5Ev2oqW29s_Qb-x6B6ik-6" value="" style="edgeStyle=orthogonalEdgeStyle;rounded=0;orthogonalLoop=1;jettySize=auto;html=1;" edge="1" parent="1" source="5Ev2oqW29s_Qb-x6B6ik-8" target="5Ev2oqW29s_Qb-x6B6ik-12">
          <mxGeometry relative="1" as="geometry" />
        </mxCell>
        <mxCell id="5Ev2oqW29s_Qb-x6B6ik-7" value="" style="edgeStyle=orthogonalEdgeStyle;rounded=0;orthogonalLoop=1;jettySize=auto;html=1;" edge="1" parent="1" source="5Ev2oqW29s_Qb-x6B6ik-8" target="5Ev2oqW29s_Qb-x6B6ik-18">
          <mxGeometry relative="1" as="geometry" />
        </mxCell>
        <mxCell id="5Ev2oqW29s_Qb-x6B6ik-8" value="主页" style="whiteSpace=wrap;html=1;rounded=0;" vertex="1" parent="1">
          <mxGeometry x="354" y="240" width="120" height="40" as="geometry" />
        </mxCell>
        <mxCell id="5Ev2oqW29s_Qb-x6B6ik-9" value="" style="edgeStyle=orthogonalEdgeStyle;rounded=0;orthogonalLoop=1;jettySize=auto;html=1;" edge="1" parent="1" source="5Ev2oqW29s_Qb-x6B6ik-10" target="5Ev2oqW29s_Qb-x6B6ik-14">
          <mxGeometry relative="1" as="geometry" />
        </mxCell>
        <mxCell id="5Ev2oqW29s_Qb-x6B6ik-10" value="会议" style="whiteSpace=wrap;html=1;rounded=0;" vertex="1" parent="1">
          <mxGeometry x="180" y="320" width="120" height="40" as="geometry" />
        </mxCell>
        <mxCell id="5Ev2oqW29s_Qb-x6B6ik-11" value="" style="edgeStyle=orthogonalEdgeStyle;rounded=0;orthogonalLoop=1;jettySize=auto;html=1;" edge="1" parent="1" source="5Ev2oqW29s_Qb-x6B6ik-12" target="5Ev2oqW29s_Qb-x6B6ik-23">
          <mxGeometry relative="1" as="geometry" />
        </mxCell>
        <mxCell id="5Ev2oqW29s_Qb-x6B6ik-12" value="通讯录" style="whiteSpace=wrap;html=1;rounded=0;" vertex="1" parent="1">
          <mxGeometry x="354" y="320" width="120" height="40" as="geometry" />
        </mxCell>
        <mxCell id="5Ev2oqW29s_Qb-x6B6ik-13" value="" style="edgeStyle=orthogonalEdgeStyle;rounded=0;orthogonalLoop=1;jettySize=auto;html=1;" edge="1" parent="1" source="5Ev2oqW29s_Qb-x6B6ik-14" target="5Ev2oqW29s_Qb-x6B6ik-16">
          <mxGeometry relative="1" as="geometry" />
        </mxCell>
        <mxCell id="5Ev2oqW29s_Qb-x6B6ik-14" value="选择会议室" style="whiteSpace=wrap;html=1;rounded=0;" vertex="1" parent="1">
          <mxGeometry x="180" y="420" width="120" height="40" as="geometry" />
        </mxCell>
        <mxCell id="5Ev2oqW29s_Qb-x6B6ik-15" value="" style="edgeStyle=orthogonalEdgeStyle;rounded=0;orthogonalLoop=1;jettySize=auto;html=1;" edge="1" parent="1" source="5Ev2oqW29s_Qb-x6B6ik-16" target="5Ev2oqW29s_Qb-x6B6ik-20">
          <mxGeometry relative="1" as="geometry" />
        </mxCell>
        <mxCell id="5Ev2oqW29s_Qb-x6B6ik-16" value="选择会议时间" style="whiteSpace=wrap;html=1;rounded=0;" vertex="1" parent="1">
          <mxGeometry x="180" y="520" width="120" height="40" as="geometry" />
        </mxCell>
        <mxCell id="5Ev2oqW29s_Qb-x6B6ik-17" value="" style="edgeStyle=orthogonalEdgeStyle;rounded=0;orthogonalLoop=1;jettySize=auto;html=1;" edge="1" parent="1" source="5Ev2oqW29s_Qb-x6B6ik-18" target="5Ev2oqW29s_Qb-x6B6ik-21">
          <mxGeometry relative="1" as="geometry" />
        </mxCell>
        <mxCell id="5Ev2oqW29s_Qb-x6B6ik-18" value="我的" style="whiteSpace=wrap;html=1;rounded=0;" vertex="1" parent="1">
          <mxGeometry x="540" y="320" width="120" height="40" as="geometry" />
        </mxCell>
        <mxCell id="5Ev2oqW29s_Qb-x6B6ik-19" value="" style="edgeStyle=orthogonalEdgeStyle;rounded=0;orthogonalLoop=1;jettySize=auto;html=1;" edge="1" parent="1" source="5Ev2oqW29s_Qb-x6B6ik-20" target="5Ev2oqW29s_Qb-x6B6ik-22">
          <mxGeometry relative="1" as="geometry" />
        </mxCell>
        <mxCell id="5Ev2oqW29s_Qb-x6B6ik-20" value="选择会议人员" style="whiteSpace=wrap;html=1;rounded=0;" vertex="1" parent="1">
          <mxGeometry x="180" y="620" width="120" height="40" as="geometry" />
        </mxCell>
        <mxCell id="5Ev2oqW29s_Qb-x6B6ik-21" value="账号个人资料相关设置" style="whiteSpace=wrap;html=1;rounded=0;" vertex="1" parent="1">
          <mxGeometry x="540" y="420" width="120" height="40" as="geometry" />
        </mxCell>
        <mxCell id="5Ev2oqW29s_Qb-x6B6ik-22" value="预约会议室" style="whiteSpace=wrap;html=1;rounded=0;" vertex="1" parent="1">
          <mxGeometry x="180" y="720" width="120" height="40" as="geometry" />
        </mxCell>
        <mxCell id="5Ev2oqW29s_Qb-x6B6ik-23" value="管理联系人" style="whiteSpace=wrap;html=1;rounded=0;" vertex="1" parent="1">
          <mxGeometry x="354" y="420" width="120" height="40" as="geometry" />
        </mxCell>
      </root>
    </mxGraphModel>
  </diagram>
  <diagram name="第 2 页" id="Xwa7NWWPuuvPoOIUL_VL">
    <mxGraphModel dx="1018" dy="646" grid="0" gridSize="10" guides="1" tooltips="1" connect="1" arrows="1" fold="1" page="1" pageScale="1" pageWidth="827" pageHeight="1169" math="0" shadow="0">
      <root>
        <mxCell id="0" />
        <mxCell id="1" parent="0" />
        <mxCell id="gJLRadItljGxqKsjb4Ei-7" style="edgeStyle=orthogonalEdgeStyle;rounded=0;orthogonalLoop=1;jettySize=auto;html=1;exitX=0.5;exitY=1;exitDx=0;exitDy=0;entryX=0.5;entryY=0;entryDx=0;entryDy=0;fontSize=12;startSize=8;endSize=8;endArrow=none;endFill=0;" edge="1" parent="1" source="gJLRadItljGxqKsjb4Ei-1" target="gJLRadItljGxqKsjb4Ei-3">
          <mxGeometry relative="1" as="geometry" />
        </mxCell>
        <mxCell id="gJLRadItljGxqKsjb4Ei-8" style="edgeStyle=orthogonalEdgeStyle;rounded=0;orthogonalLoop=1;jettySize=auto;html=1;exitX=0.5;exitY=1;exitDx=0;exitDy=0;entryX=0.5;entryY=0;entryDx=0;entryDy=0;fontSize=12;startSize=8;endSize=8;endArrow=none;endFill=0;" edge="1" parent="1" source="gJLRadItljGxqKsjb4Ei-1" target="gJLRadItljGxqKsjb4Ei-2">
          <mxGeometry relative="1" as="geometry" />
        </mxCell>
        <mxCell id="gJLRadItljGxqKsjb4Ei-9" style="edgeStyle=orthogonalEdgeStyle;rounded=0;orthogonalLoop=1;jettySize=auto;html=1;exitX=0.5;exitY=1;exitDx=0;exitDy=0;entryX=0.5;entryY=0;entryDx=0;entryDy=0;fontSize=12;startSize=8;endSize=8;endArrow=none;endFill=0;" edge="1" parent="1" source="gJLRadItljGxqKsjb4Ei-1" target="gJLRadItljGxqKsjb4Ei-4">
          <mxGeometry relative="1" as="geometry" />
        </mxCell>
        <mxCell id="gJLRadItljGxqKsjb4Ei-1" value="会议室预约系统" style="rounded=0;whiteSpace=wrap;html=1;absoluteArcSize=1;arcSize=0;strokeWidth=2;" vertex="1" parent="1">
          <mxGeometry x="351" y="47" width="125" height="55" as="geometry" />
        </mxCell>
        <mxCell id="gJLRadItljGxqKsjb4Ei-24" style="edgeStyle=orthogonalEdgeStyle;rounded=0;orthogonalLoop=1;jettySize=auto;html=1;exitX=0.5;exitY=1;exitDx=0;exitDy=0;entryX=0.5;entryY=0;entryDx=0;entryDy=0;fontSize=12;startSize=8;endSize=8;endArrow=none;endFill=0;" edge="1" parent="1" source="gJLRadItljGxqKsjb4Ei-2" target="gJLRadItljGxqKsjb4Ei-12">
          <mxGeometry relative="1" as="geometry" />
        </mxCell>
        <mxCell id="gJLRadItljGxqKsjb4Ei-2" value="输入" style="rounded=0;whiteSpace=wrap;html=1;absoluteArcSize=1;arcSize=0;strokeWidth=2;" vertex="1" parent="1">
          <mxGeometry x="170" y="156" width="60" height="30" as="geometry" />
        </mxCell>
        <mxCell id="gJLRadItljGxqKsjb4Ei-27" style="edgeStyle=orthogonalEdgeStyle;rounded=0;orthogonalLoop=1;jettySize=auto;html=1;exitX=0.5;exitY=1;exitDx=0;exitDy=0;entryX=0.5;entryY=0;entryDx=0;entryDy=0;fontSize=12;startSize=8;endSize=8;endArrow=none;endFill=0;" edge="1" parent="1" source="gJLRadItljGxqKsjb4Ei-3" target="gJLRadItljGxqKsjb4Ei-26">
          <mxGeometry relative="1" as="geometry" />
        </mxCell>
        <mxCell id="gJLRadItljGxqKsjb4Ei-3" value="读取" style="rounded=0;whiteSpace=wrap;html=1;absoluteArcSize=1;arcSize=0;strokeWidth=2;" vertex="1" parent="1">
          <mxGeometry x="383.5" y="156" width="60" height="30" as="geometry" />
        </mxCell>
        <mxCell id="gJLRadItljGxqKsjb4Ei-19" style="edgeStyle=orthogonalEdgeStyle;rounded=0;orthogonalLoop=1;jettySize=auto;html=1;exitX=0.5;exitY=1;exitDx=0;exitDy=0;entryX=0.5;entryY=0;entryDx=0;entryDy=0;fontSize=12;startSize=8;endSize=8;endArrow=none;endFill=0;" edge="1" parent="1" source="gJLRadItljGxqKsjb4Ei-4" target="gJLRadItljGxqKsjb4Ei-17">
          <mxGeometry relative="1" as="geometry">
            <Array as="points">
              <mxPoint x="627" y="206" />
              <mxPoint x="499" y="206" />
            </Array>
          </mxGeometry>
        </mxCell>
        <mxCell id="gJLRadItljGxqKsjb4Ei-20" style="edgeStyle=orthogonalEdgeStyle;rounded=0;orthogonalLoop=1;jettySize=auto;html=1;exitX=0.5;exitY=1;exitDx=0;exitDy=0;entryX=0.5;entryY=0;entryDx=0;entryDy=0;fontSize=12;startSize=8;endSize=8;endArrow=none;endFill=0;" edge="1" parent="1" source="gJLRadItljGxqKsjb4Ei-4" target="gJLRadItljGxqKsjb4Ei-15">
          <mxGeometry relative="1" as="geometry" />
        </mxCell>
        <mxCell id="gJLRadItljGxqKsjb4Ei-21" style="edgeStyle=orthogonalEdgeStyle;rounded=0;orthogonalLoop=1;jettySize=auto;html=1;exitX=0.5;exitY=1;exitDx=0;exitDy=0;entryX=0.5;entryY=0;entryDx=0;entryDy=0;fontSize=12;startSize=8;endSize=8;endArrow=none;endFill=0;" edge="1" parent="1" source="gJLRadItljGxqKsjb4Ei-4" target="gJLRadItljGxqKsjb4Ei-16">
          <mxGeometry relative="1" as="geometry" />
        </mxCell>
        <mxCell id="gJLRadItljGxqKsjb4Ei-22" style="edgeStyle=orthogonalEdgeStyle;rounded=0;orthogonalLoop=1;jettySize=auto;html=1;exitX=0.5;exitY=1;exitDx=0;exitDy=0;entryX=0.5;entryY=0;entryDx=0;entryDy=0;fontSize=12;startSize=8;endSize=8;endArrow=none;endFill=0;" edge="1" parent="1" source="gJLRadItljGxqKsjb4Ei-4" target="gJLRadItljGxqKsjb4Ei-18">
          <mxGeometry relative="1" as="geometry">
            <Array as="points">
              <mxPoint x="627" y="206" />
              <mxPoint x="754" y="206" />
            </Array>
          </mxGeometry>
        </mxCell>
        <mxCell id="gJLRadItljGxqKsjb4Ei-4" value="编辑" style="rounded=0;whiteSpace=wrap;html=1;absoluteArcSize=1;arcSize=0;strokeWidth=2;" vertex="1" parent="1">
          <mxGeometry x="597" y="156" width="60" height="30" as="geometry" />
        </mxCell>
        <mxCell id="gJLRadItljGxqKsjb4Ei-25" style="edgeStyle=orthogonalEdgeStyle;rounded=0;orthogonalLoop=1;jettySize=auto;html=1;exitX=0.5;exitY=1;exitDx=0;exitDy=0;entryX=0.5;entryY=0;entryDx=0;entryDy=0;fontSize=12;startSize=8;endSize=8;endArrow=none;endFill=0;" edge="1" parent="1" source="gJLRadItljGxqKsjb4Ei-12" target="gJLRadItljGxqKsjb4Ei-13">
          <mxGeometry relative="1" as="geometry" />
        </mxCell>
        <mxCell id="gJLRadItljGxqKsjb4Ei-12" value="检验" style="rounded=0;whiteSpace=wrap;html=1;absoluteArcSize=1;arcSize=0;strokeWidth=2;" vertex="1" parent="1">
          <mxGeometry x="170" y="218" width="60" height="30" as="geometry" />
        </mxCell>
        <mxCell id="gJLRadItljGxqKsjb4Ei-13" value="存储" style="rounded=0;whiteSpace=wrap;html=1;absoluteArcSize=1;arcSize=0;strokeWidth=2;" vertex="1" parent="1">
          <mxGeometry x="170" y="280" width="60" height="30" as="geometry" />
        </mxCell>
        <mxCell id="gJLRadItljGxqKsjb4Ei-14" value="输出" style="rounded=0;whiteSpace=wrap;html=1;absoluteArcSize=1;arcSize=0;strokeWidth=2;" vertex="1" parent="1">
          <mxGeometry x="384" y="280" width="60" height="30" as="geometry" />
        </mxCell>
        <mxCell id="gJLRadItljGxqKsjb4Ei-15" value="修改" style="rounded=0;whiteSpace=wrap;html=1;absoluteArcSize=1;arcSize=0;strokeWidth=2;" vertex="1" parent="1">
          <mxGeometry x="554" y="218" width="60" height="30" as="geometry" />
        </mxCell>
        <mxCell id="gJLRadItljGxqKsjb4Ei-16" value="插入" style="rounded=0;whiteSpace=wrap;html=1;absoluteArcSize=1;arcSize=0;strokeWidth=2;" vertex="1" parent="1">
          <mxGeometry x="639" y="218" width="60" height="30" as="geometry" />
        </mxCell>
        <mxCell id="gJLRadItljGxqKsjb4Ei-17" value="删除" style="rounded=0;whiteSpace=wrap;html=1;absoluteArcSize=1;arcSize=0;strokeWidth=2;" vertex="1" parent="1">
          <mxGeometry x="469" y="218" width="60" height="30" as="geometry" />
        </mxCell>
        <mxCell id="gJLRadItljGxqKsjb4Ei-18" value="添加" style="rounded=0;whiteSpace=wrap;html=1;absoluteArcSize=1;arcSize=0;strokeWidth=2;" vertex="1" parent="1">
          <mxGeometry x="724" y="218" width="60" height="30" as="geometry" />
        </mxCell>
        <mxCell id="gJLRadItljGxqKsjb4Ei-28" style="edgeStyle=orthogonalEdgeStyle;rounded=0;orthogonalLoop=1;jettySize=auto;html=1;exitX=0.5;exitY=1;exitDx=0;exitDy=0;entryX=0.5;entryY=0;entryDx=0;entryDy=0;fontSize=12;startSize=8;endSize=8;endArrow=none;endFill=0;" edge="1" parent="1" source="gJLRadItljGxqKsjb4Ei-26" target="gJLRadItljGxqKsjb4Ei-14">
          <mxGeometry relative="1" as="geometry" />
        </mxCell>
        <mxCell id="gJLRadItljGxqKsjb4Ei-26" value="拦截器" style="rounded=1;whiteSpace=wrap;html=1;absoluteArcSize=1;arcSize=0;strokeWidth=2;" vertex="1" parent="1">
          <mxGeometry x="384" y="218" width="60" height="30" as="geometry" />
        </mxCell>
      </root>
    </mxGraphModel>
  </diagram>
  <diagram name="第 3 页" id="5dmlNm_AMChrNZ-aMEUy">
    <mxGraphModel dx="1018" dy="646" grid="0" gridSize="10" guides="1" tooltips="1" connect="1" arrows="1" fold="1" page="1" pageScale="1" pageWidth="827" pageHeight="1169" math="0" shadow="0">
      <root>
        <mxCell id="0" />
        <mxCell id="1" parent="0" />
        <mxCell id="iUOK2a4vqHmcF7-lKL4K-16" style="edgeStyle=none;curved=1;rounded=0;orthogonalLoop=1;jettySize=auto;html=1;exitX=1;exitY=0.5;exitDx=0;exitDy=0;entryX=0;entryY=0.5;entryDx=0;entryDy=0;fontSize=12;startSize=8;endSize=8;" edge="1" parent="1" source="2tGR-FKvdTNUVE1Lu8Y0-3" target="2tGR-FKvdTNUVE1Lu8Y0-5">
          <mxGeometry relative="1" as="geometry" />
        </mxCell>
        <mxCell id="2tGR-FKvdTNUVE1Lu8Y0-3" value="用户" style="html=1;dashed=0;whiteSpace=wrap;" vertex="1" parent="1">
          <mxGeometry x="115" y="219.25" width="80" height="40" as="geometry" />
        </mxCell>
        <mxCell id="iUOK2a4vqHmcF7-lKL4K-18" value="&lt;p&gt;&lt;font style=&quot;font-size: 10px;&quot;&gt;用户账号密码&lt;/font&gt;&lt;/p&gt;" style="text;html=1;align=center;verticalAlign=middle;resizable=0;points=[];autosize=1;strokeColor=none;fillColor=none;fontSize=16;" vertex="1" parent="1">
          <mxGeometry x="193" y="196.25" width="78" height="63" as="geometry" />
        </mxCell>
        <mxCell id="iUOK2a4vqHmcF7-lKL4K-25" style="edgeStyle=none;curved=1;rounded=0;orthogonalLoop=1;jettySize=auto;html=1;exitX=1;exitY=0.5;exitDx=0;exitDy=0;entryX=0.212;entryY=0.029;entryDx=0;entryDy=0;fontSize=12;startSize=8;endSize=8;entryPerimeter=0;fillColor=#d5e8d4;strokeColor=#82b366;" edge="1" parent="1" source="iUOK2a4vqHmcF7-lKL4K-22" target="iUOK2a4vqHmcF7-lKL4K-7">
          <mxGeometry relative="1" as="geometry" />
        </mxCell>
        <mxCell id="iUOK2a4vqHmcF7-lKL4K-22" value="管理员" style="html=1;dashed=0;whiteSpace=wrap;" vertex="1" parent="1">
          <mxGeometry x="113" y="317" width="80" height="40" as="geometry" />
        </mxCell>
        <mxCell id="iUOK2a4vqHmcF7-lKL4K-31" style="edgeStyle=none;curved=1;rounded=0;orthogonalLoop=1;jettySize=auto;html=1;exitX=1;exitY=0.5;exitDx=0;exitDy=0;entryX=0;entryY=0.5;entryDx=0;entryDy=0;fontSize=12;startSize=8;endSize=8;" edge="1" parent="1" source="iUOK2a4vqHmcF7-lKL4K-15" target="iUOK2a4vqHmcF7-lKL4K-20">
          <mxGeometry relative="1" as="geometry" />
        </mxCell>
        <mxCell id="iUOK2a4vqHmcF7-lKL4K-40" style="edgeStyle=orthogonalEdgeStyle;rounded=0;orthogonalLoop=1;jettySize=auto;html=1;exitX=0.5;exitY=1;exitDx=0;exitDy=0;entryX=1;entryY=0.5;entryDx=0;entryDy=0;fontSize=12;startSize=8;endSize=8;fillColor=#d5e8d4;strokeColor=#82b366;" edge="1" parent="1" source="iUOK2a4vqHmcF7-lKL4K-15" target="iUOK2a4vqHmcF7-lKL4K-29">
          <mxGeometry relative="1" as="geometry">
            <Array as="points">
              <mxPoint x="463" y="298" />
              <mxPoint x="374" y="298" />
              <mxPoint x="374" y="415" />
            </Array>
          </mxGeometry>
        </mxCell>
        <mxCell id="iUOK2a4vqHmcF7-lKL4K-49" style="edgeStyle=orthogonalEdgeStyle;rounded=0;orthogonalLoop=1;jettySize=auto;html=1;exitX=0.5;exitY=0;exitDx=0;exitDy=0;entryX=1;entryY=0.5;entryDx=0;entryDy=0;fontSize=12;startSize=8;endSize=8;" edge="1" parent="1" source="iUOK2a4vqHmcF7-lKL4K-15" target="iUOK2a4vqHmcF7-lKL4K-27">
          <mxGeometry relative="1" as="geometry">
            <Array as="points">
              <mxPoint x="463" y="149" />
              <mxPoint x="715" y="149" />
              <mxPoint x="715" y="415" />
            </Array>
          </mxGeometry>
        </mxCell>
        <mxCell id="iUOK2a4vqHmcF7-lKL4K-57" style="edgeStyle=orthogonalEdgeStyle;rounded=0;orthogonalLoop=1;jettySize=auto;html=1;exitX=0.75;exitY=0;exitDx=0;exitDy=0;entryX=1;entryY=0.25;entryDx=0;entryDy=0;fontSize=12;startSize=8;endSize=8;" edge="1" parent="1" source="iUOK2a4vqHmcF7-lKL4K-15" target="iUOK2a4vqHmcF7-lKL4K-27">
          <mxGeometry relative="1" as="geometry" />
        </mxCell>
        <mxCell id="iUOK2a4vqHmcF7-lKL4K-15" value="User表" style="html=1;dashed=0;whiteSpace=wrap;shape=partialRectangle;right=0;left=0;" vertex="1" parent="1">
          <mxGeometry x="432" y="224.25" width="61" height="30" as="geometry" />
        </mxCell>
        <mxCell id="iUOK2a4vqHmcF7-lKL4K-17" style="edgeStyle=none;curved=1;rounded=0;orthogonalLoop=1;jettySize=auto;html=1;exitX=1;exitY=0.5;exitDx=0;exitDy=0;fontSize=12;startSize=8;endSize=8;" edge="1" parent="1" source="2tGR-FKvdTNUVE1Lu8Y0-5" target="iUOK2a4vqHmcF7-lKL4K-15">
          <mxGeometry relative="1" as="geometry" />
        </mxCell>
        <mxCell id="iUOK2a4vqHmcF7-lKL4K-52" style="edgeStyle=none;curved=1;rounded=0;orthogonalLoop=1;jettySize=auto;html=1;exitX=0;exitY=1;exitDx=0;exitDy=0;entryX=1;entryY=0.5;entryDx=0;entryDy=0;fontSize=12;startSize=8;endSize=8;" edge="1" parent="1" source="iUOK2a4vqHmcF7-lKL4K-20" target="iUOK2a4vqHmcF7-lKL4K-50">
          <mxGeometry relative="1" as="geometry" />
        </mxCell>
        <mxCell id="iUOK2a4vqHmcF7-lKL4K-20" value="P2" style="swimlane;fontStyle=0;childLayout=stackLayout;horizontal=1;startSize=23;fillColor=#ffffff;horizontalStack=0;resizeParent=1;resizeParentMax=0;resizeLast=0;collapsible=0;marginBottom=0;swimlaneFillColor=#ffffff;" vertex="1" parent="1">
          <mxGeometry x="609.5" y="181.25" width="35" height="116" as="geometry" />
        </mxCell>
        <mxCell id="iUOK2a4vqHmcF7-lKL4K-21" value="&lt;font style=&quot;font-size: 13px;&quot;&gt;会议信息管理&lt;/font&gt;" style="text;html=1;align=center;verticalAlign=middle;resizable=0;points=[];autosize=1;strokeColor=none;fillColor=none;fontSize=16;horizontal=1;labelPosition=center;verticalLabelPosition=middle;textDirection=vertical-lr;" vertex="1" parent="1">
          <mxGeometry x="578.9983673469387" y="246.25244649695878" width="96" height="31" as="geometry" />
        </mxCell>
        <mxCell id="iUOK2a4vqHmcF7-lKL4K-24" value="" style="group" vertex="1" connectable="0" parent="1">
          <mxGeometry x="277.8036585365854" y="181.25" width="70" height="116" as="geometry" />
        </mxCell>
        <mxCell id="2tGR-FKvdTNUVE1Lu8Y0-5" value="P1" style="swimlane;fontStyle=0;childLayout=stackLayout;horizontal=1;startSize=23;fillColor=#ffffff;horizontalStack=0;resizeParent=1;resizeParentMax=0;resizeLast=0;collapsible=0;marginBottom=0;swimlaneFillColor=#ffffff;" vertex="1" parent="iUOK2a4vqHmcF7-lKL4K-24">
          <mxGeometry x="17.496341463414637" width="35" height="116" as="geometry" />
        </mxCell>
        <mxCell id="iUOK2a4vqHmcF7-lKL4K-7" value="&lt;font style=&quot;font-size: 13px;&quot;&gt;登陆系统&lt;/font&gt;" style="text;html=1;align=center;verticalAlign=middle;resizable=0;points=[];autosize=1;strokeColor=none;fillColor=none;fontSize=16;horizontal=1;labelPosition=center;verticalLabelPosition=middle;textDirection=vertical-lr;" vertex="1" parent="iUOK2a4vqHmcF7-lKL4K-24">
          <mxGeometry y="68.25" width="70" height="31" as="geometry" />
        </mxCell>
        <mxCell id="iUOK2a4vqHmcF7-lKL4K-26" value="&lt;p&gt;&lt;font style=&quot;font-size: 10px;&quot;&gt;用户账号密码&lt;/font&gt;&lt;/p&gt;" style="text;html=1;align=center;verticalAlign=middle;resizable=0;points=[];autosize=1;strokeColor=none;fillColor=none;fontSize=16;rotation=317;fontColor=#82b366;" vertex="1" parent="1">
          <mxGeometry x="193" y="254" width="78" height="63" as="geometry" />
        </mxCell>
        <mxCell id="iUOK2a4vqHmcF7-lKL4K-53" style="edgeStyle=none;curved=1;rounded=0;orthogonalLoop=1;jettySize=auto;html=1;exitX=0;exitY=1;exitDx=0;exitDy=0;entryX=1;entryY=0.5;entryDx=0;entryDy=0;fontSize=12;startSize=8;endSize=8;" edge="1" parent="1" source="iUOK2a4vqHmcF7-lKL4K-27" target="iUOK2a4vqHmcF7-lKL4K-51">
          <mxGeometry relative="1" as="geometry" />
        </mxCell>
        <mxCell id="iUOK2a4vqHmcF7-lKL4K-27" value="P4" style="swimlane;fontStyle=0;childLayout=stackLayout;horizontal=1;startSize=23;fillColor=#ffffff;horizontalStack=0;resizeParent=1;resizeParentMax=0;resizeLast=0;collapsible=0;marginBottom=0;swimlaneFillColor=#ffffff;" vertex="1" parent="1">
          <mxGeometry x="609.5" y="357" width="35" height="116" as="geometry" />
        </mxCell>
        <mxCell id="iUOK2a4vqHmcF7-lKL4K-28" value="&lt;span style=&quot;font-size: 13px;&quot;&gt;联系人管理&lt;/span&gt;" style="text;html=1;align=center;verticalAlign=middle;resizable=0;points=[];autosize=1;strokeColor=none;fillColor=none;fontSize=16;horizontal=1;labelPosition=center;verticalLabelPosition=middle;textDirection=vertical-lr;" vertex="1" parent="1">
          <mxGeometry x="585.4983673469387" y="430.0024464969588" width="83" height="31" as="geometry" />
        </mxCell>
        <mxCell id="iUOK2a4vqHmcF7-lKL4K-37" style="edgeStyle=none;curved=1;rounded=0;orthogonalLoop=1;jettySize=auto;html=1;exitX=1;exitY=0.5;exitDx=0;exitDy=0;entryX=0;entryY=0.5;entryDx=0;entryDy=0;fontSize=12;startSize=8;endSize=8;fillColor=#d5e8d4;strokeColor=#82b366;" edge="1" parent="1" source="iUOK2a4vqHmcF7-lKL4K-29" target="iUOK2a4vqHmcF7-lKL4K-35">
          <mxGeometry relative="1" as="geometry" />
        </mxCell>
        <mxCell id="iUOK2a4vqHmcF7-lKL4K-47" style="edgeStyle=orthogonalEdgeStyle;rounded=0;orthogonalLoop=1;jettySize=auto;html=1;exitX=0.25;exitY=1;exitDx=0;exitDy=0;fontSize=12;startSize=8;endSize=8;entryX=0;entryY=0.75;entryDx=0;entryDy=0;fillColor=#d5e8d4;strokeColor=#82b366;" edge="1" parent="1" source="iUOK2a4vqHmcF7-lKL4K-29" target="iUOK2a4vqHmcF7-lKL4K-43">
          <mxGeometry relative="1" as="geometry">
            <mxPoint x="294.3333841959636" y="613.1666666666667" as="targetPoint" />
          </mxGeometry>
        </mxCell>
        <mxCell id="iUOK2a4vqHmcF7-lKL4K-29" value="P3" style="swimlane;fontStyle=0;childLayout=stackLayout;horizontal=1;startSize=23;fillColor=#ffffff;horizontalStack=0;resizeParent=1;resizeParentMax=0;resizeLast=0;collapsible=0;marginBottom=0;swimlaneFillColor=#ffffff;" vertex="1" parent="1">
          <mxGeometry x="295.31" y="357" width="35" height="116" as="geometry" />
        </mxCell>
        <mxCell id="iUOK2a4vqHmcF7-lKL4K-30" value="&lt;span style=&quot;font-size: 13px;&quot;&gt;会议室信息管理&lt;/span&gt;" style="text;html=1;align=center;verticalAlign=middle;resizable=0;points=[];autosize=1;strokeColor=none;fillColor=none;fontSize=16;horizontal=1;labelPosition=center;verticalLabelPosition=middle;textDirection=vertical-lr;" vertex="1" parent="1">
          <mxGeometry x="258.8083673469387" y="422.0024464969588" width="109" height="31" as="geometry" />
        </mxCell>
        <mxCell id="iUOK2a4vqHmcF7-lKL4K-34" style="edgeStyle=none;curved=1;rounded=0;orthogonalLoop=1;jettySize=auto;html=1;exitX=0.776;exitY=0.047;exitDx=0;exitDy=0;fontSize=12;startSize=8;endSize=8;fillColor=#d5e8d4;strokeColor=#82b366;exitPerimeter=0;" edge="1" parent="1" source="iUOK2a4vqHmcF7-lKL4K-7">
          <mxGeometry relative="1" as="geometry">
            <mxPoint x="432" y="341.25" as="sourcePoint" />
            <mxPoint x="432" y="250" as="targetPoint" />
          </mxGeometry>
        </mxCell>
        <mxCell id="iUOK2a4vqHmcF7-lKL4K-48" style="edgeStyle=orthogonalEdgeStyle;rounded=0;orthogonalLoop=1;jettySize=auto;html=1;exitX=1;exitY=0.5;exitDx=0;exitDy=0;entryX=0.5;entryY=1;entryDx=0;entryDy=0;fontSize=12;startSize=8;endSize=8;" edge="1" parent="1" source="iUOK2a4vqHmcF7-lKL4K-35" target="iUOK2a4vqHmcF7-lKL4K-20">
          <mxGeometry relative="1" as="geometry">
            <Array as="points">
              <mxPoint x="555" y="415" />
              <mxPoint x="555" y="334" />
              <mxPoint x="627" y="334" />
            </Array>
          </mxGeometry>
        </mxCell>
        <mxCell id="iUOK2a4vqHmcF7-lKL4K-35" value="MeetingRoom表" style="html=1;dashed=0;whiteSpace=wrap;shape=partialRectangle;right=0;left=0;" vertex="1" parent="1">
          <mxGeometry x="432" y="400" width="61" height="30" as="geometry" />
        </mxCell>
        <mxCell id="iUOK2a4vqHmcF7-lKL4K-46" style="edgeStyle=orthogonalEdgeStyle;rounded=0;orthogonalLoop=1;jettySize=auto;html=1;exitX=0.066;exitY=0.367;exitDx=0;exitDy=0;entryX=0.75;entryY=1;entryDx=0;entryDy=0;fontSize=12;startSize=8;endSize=8;exitPerimeter=0;" edge="1" parent="1" source="iUOK2a4vqHmcF7-lKL4K-43" target="iUOK2a4vqHmcF7-lKL4K-29">
          <mxGeometry relative="1" as="geometry" />
        </mxCell>
        <mxCell id="iUOK2a4vqHmcF7-lKL4K-43" value="Device表" style="html=1;dashed=0;whiteSpace=wrap;shape=partialRectangle;right=0;left=0;" vertex="1" parent="1">
          <mxGeometry x="432" y="576" width="61" height="30" as="geometry" />
        </mxCell>
        <mxCell id="iUOK2a4vqHmcF7-lKL4K-54" style="edgeStyle=none;curved=1;rounded=0;orthogonalLoop=1;jettySize=auto;html=1;exitX=1;exitY=0;exitDx=0;exitDy=0;fontSize=12;startSize=8;endSize=8;" edge="1" parent="1" source="iUOK2a4vqHmcF7-lKL4K-50">
          <mxGeometry relative="1" as="geometry">
            <mxPoint x="613" y="282" as="targetPoint" />
          </mxGeometry>
        </mxCell>
        <mxCell id="iUOK2a4vqHmcF7-lKL4K-50" value="Meeting表" style="html=1;dashed=0;whiteSpace=wrap;shape=partialRectangle;right=0;left=0;" vertex="1" parent="1">
          <mxGeometry x="432" y="312" width="61" height="30" as="geometry" />
        </mxCell>
        <mxCell id="iUOK2a4vqHmcF7-lKL4K-55" style="edgeStyle=none;curved=1;rounded=0;orthogonalLoop=1;jettySize=auto;html=1;exitX=1;exitY=0;exitDx=0;exitDy=0;fontSize=12;startSize=8;endSize=8;" edge="1" parent="1" source="iUOK2a4vqHmcF7-lKL4K-51">
          <mxGeometry relative="1" as="geometry">
            <mxPoint x="609.3334350585938" y="455.388905843099" as="targetPoint" />
          </mxGeometry>
        </mxCell>
        <mxCell id="iUOK2a4vqHmcF7-lKL4K-51" value="Friends表" style="html=1;dashed=0;whiteSpace=wrap;shape=partialRectangle;right=0;left=0;" vertex="1" parent="1">
          <mxGeometry x="432" y="488" width="61" height="30" as="geometry" />
        </mxCell>
      </root>
    </mxGraphModel>
  </diagram>
</mxfile>
